<?xml version="1.0" encoding="UTF-8" standalone="no"?>
<!-- Created with Inkscape (http://www.inkscape.org/) -->

<svg
   width="401"
   height="90"
   viewBox="0 0 106.09791 23.8125"
   version="1.1"
   id="svg1"
   inkscape:export-filename="coop.svg"
   inkscape:export-xdpi="96"
   inkscape:export-ydpi="96"
   xmlns:inkscape="http://www.inkscape.org/namespaces/inkscape"
   xmlns:sodipodi="http://sodipodi.sourceforge.net/DTD/sodipodi-0.dtd"
   xmlns="http://www.w3.org/2000/svg"
   xmlns:svg="http://www.w3.org/2000/svg">
  <sodipodi:namedview
     id="namedview1"
     pagecolor="#ffffff"
     bordercolor="#000000"
     borderopacity="0.25"
     inkscape:showpageshadow="2"
     inkscape:pageopacity="0.0"
     inkscape:pagecheckerboard="0"
     inkscape:deskcolor="#d1d1d1"
     inkscape:document-units="mm"
     showguides="true">
    <sodipodi:guide
       position="21.188819,15.129107"
       orientation="1,0"
       id="guide7"
       inkscape:locked="false" />
    <sodipodi:guide
       position="21.255872,19.219354"
       orientation="0,-1"
       id="guide19"
       inkscape:locked="false" />
    <sodipodi:guide
       position="21.440269,17.392153"
       orientation="0,-1"
       id="guide20"
       inkscape:locked="false" />
    <sodipodi:guide
       position="19.311329,11.742919"
       orientation="0,-1"
       id="guide151"
       inkscape:locked="false" />
    <inkscape:page
       x="0"
       y="0"
       width="106.09791"
       height="23.8125"
       id="page2"
       margin="0"
       bleed="0" />
  </sodipodi:namedview>
  <defs
     id="defs1">
    <clipPath
       clipPathUnits="userSpaceOnUse"
       id="clipPath53">
      <path
         id="path53"
         style="fill:#ff0000;fill-opacity:1;fill-rule:nonzero;stroke:none;stroke-width:0.264583"
         d="M 11.324373,2.2458578 V 21.893237 H 30.971755 V 2.2458578 Z M 16.573665,15.87655 c 0.148987,0.0025 0.311859,0.134553 0.379822,0.421163 0.0077,0.0325 0.01556,0.06465 0.02325,0.09715 0.05613,0.237396 0.106992,0.476734 0.130742,0.719853 0.0054,0.114804 0.01055,0.140294 0.0016,0.253731 -0.01317,0.166925 -0.05506,0.330036 -0.106453,0.488859 -0.116935,0.335256 -0.255658,0.664279 -0.454753,0.960148 -0.103589,0.153479 -0.209369,0.303818 -0.322978,0.450102 -0.03911,0.05036 -0.101601,0.129307 -0.146761,0.179317 -0.01748,0.01936 -0.0366,0.03762 -0.05478,0.05633 -0.469189,0.482867 -0.872679,0.01206 -0.441317,-0.504879 0.147486,-0.176743 0.28088,-0.364487 0.409278,-0.555521 0.166179,-0.248079 0.280625,-0.524706 0.377754,-0.805636 0.03467,-0.111277 0.06688,-0.225085 0.07338,-0.342098 0.0036,-0.06494 6.61e-4,-0.07748 -0.0041,-0.142627 -0.02361,-0.203384 -0.06696,-0.404053 -0.114205,-0.603064 -0.0077,-0.03246 -0.01504,-0.06469 -0.02274,-0.09715 -0.08738,-0.368499 0.08078,-0.578905 0.272335,-0.575676 z" />
    </clipPath>
    <clipPath
       clipPathUnits="userSpaceOnUse"
       id="clipPath149">
      <path
         id="path150"
         style="fill:#ff0000;fill-opacity:1;fill-rule:nonzero;stroke:none;stroke-width:0.264583"
         d="m 23.534998,12.168766 c -2.41e-4,1.03e-4 -8.47e-4,4.23e-4 -0.001,5.29e-4 h 0.001 z m 0.0021,0 -5.29e-4,5.29e-4 h 0.001 z m -0.0041,5.29e-4 -11.216369,5.29e-4 v 8.960152 h 8.047575 c -0.01906,-0.0292 -0.02905,-0.06434 -0.04496,-0.0956 -0.01027,-0.04288 -0.02439,-0.085 -0.03049,-0.128674 -0.01563,-0.111102 0.0115,-0.222399 0.04703,-0.326595 0.03324,-0.08497 0.07098,-0.168843 0.123506,-0.243913 0.04805,-0.06717 0.09689,-0.134619 0.158647,-0.190169 0.07269,-0.06367 0.153008,-0.115278 0.236678,-0.163298 0.120592,-0.06602 0.24539,-0.123406 0.373621,-0.173116 0.124263,-0.04679 0.250815,-0.08656 0.373103,-0.138493 0.05111,-0.02294 0.100557,-0.04966 0.150379,-0.07545 0.0037,-0.0047 0.0077,-0.0092 0.01137,-0.01395 -0.0037,-0.02499 -0.0066,-0.05031 -0.0088,-0.07545 -0.0018,-0.02129 -0.0026,-0.04272 -0.0031,-0.06408 h -5.29e-4 -5.29e-4 l -5.29e-4,-5.29e-4 -5.3e-4,-5.29e-4 v -5.29e-4 l -5.29e-4,-5.29e-4 c -4.76e-4,-0.0015 -0.0011,-0.0044 -0.0016,-0.0062 v -5.29e-4 -5.3e-4 l -5.29e-4,-5.29e-4 c -0.0032,-0.0073 -0.0057,-0.0146 -0.0093,-0.0217 -0.0076,-0.01494 -0.0139,-0.02529 -0.02067,-0.03566 -0.0012,-4.77e-4 -0.0024,-0.0011 -0.0036,-0.0016 -0.0743,-0.01989 -0.149213,-0.03782 -0.224276,-0.05478 -0.05615,-0.01414 -0.112529,-0.02929 -0.169499,-0.03979 -0.05879,-0.0085 -0.117843,-0.01184 -0.176733,-0.01964 -0.08533,-0.01118 -0.170699,-0.02336 -0.255799,-0.03617 -0.100054,-0.0144 -0.200191,-0.02951 -0.30024,-0.04392 -0.04442,-0.007 -0.08876,-0.01453 -0.132808,-0.02274 -0.103204,-0.01 -0.205915,-0.02197 -0.308508,-0.03772 -0.07135,-0.01097 -0.143401,-0.0201 -0.213941,-0.03566 -0.02079,-0.0051 -0.04133,-0.01135 -0.06253,-0.01395 -0.02374,-0.0044 -0.04768,-0.0095 -0.07028,-0.01809 -0.0027,-6.88e-4 -0.0056,-0.0014 -0.0083,-0.0021 -0.02426,0.0059 -0.0482,0.003 -0.06925,-0.0057 -0.02414,-0.0016 -0.04786,-0.005 -0.07183,-0.0078 -0.03842,-0.0046 -0.07669,-0.01117 -0.114205,-0.02067 -0.01367,-0.0036 -0.02676,-0.0082 -0.03979,-0.01344 -0.123971,-0.01732 -0.244348,-0.05357 -0.363802,-0.08992 -0.129386,-0.03793 -0.251795,-0.09489 -0.375688,-0.147278 -0.138067,-0.05511 -0.260955,-0.136636 -0.378788,-0.225826 -0.07731,-0.06594 -0.161305,-0.122821 -0.240295,-0.186552 -0.122655,-0.108052 -0.195176,-0.198201 -0.243396,-0.363802 -0.01077,-0.03681 -0.0097,-0.07616 -0.01447,-0.114205 0.0091,-0.06193 0.01178,-0.12489 0.02739,-0.185519 0.01,-0.03884 0.0282,-0.07553 0.04857,-0.11007 0.07792,-0.132064 0.195312,-0.21866 0.318844,-0.303341 0.139859,-0.09298 0.288937,-0.169391 0.441317,-0.239262 0.140652,-0.06703 0.283669,-0.12818 0.427881,-0.187069 0.182474,-0.07324 0.372842,-0.123575 0.562756,-0.173116 0.09015,-0.02263 0.180703,-0.04532 0.270785,-0.06821 -0.0016,-4.76e-4 -0.004,-8.99e-4 -0.0057,-10e-4 h -5.3e-4 l -5.29e-4,-5.29e-4 c -0.05421,-0.01484 -0.108534,-0.02972 -0.162781,-0.04444 -0.02022,-0.0015 -0.04042,-0.0041 -0.06098,-0.0083 -0.161018,-0.02672 -0.317991,-0.07165 -0.47594,-0.112138 -0.304854,-0.07637 -0.611077,-0.15409 -0.924492,-0.185518 -0.135076,-0.01281 -0.270454,-0.02126 -0.405659,-0.03256 -0.05944,-0.0063 -0.1185,-0.01304 -0.177251,-0.02429 -0.0658,-0.01207 -0.131944,-0.02375 -0.195852,-0.04392 -0.07119,-0.02302 -0.142798,-0.04451 -0.213424,-0.06925 -0.02491,-0.0088 -0.05004,-0.01796 -0.07493,-0.02687 -0.03129,-0.0069 -0.06239,-0.01424 -0.09353,-0.0217 -0.08711,-0.02143 -0.174697,-0.03991 -0.260967,-0.0646 -0.06985,-0.01881 -0.136725,-0.04714 -0.203604,-0.07441 -0.04724,-0.02011 -0.09633,-0.03493 -0.145728,-0.04858 -0.06505,-0.02074 -0.132018,-0.03385 -0.198437,-0.04909 -0.07538,-0.01804 -0.145937,-0.04952 -0.212908,-0.08785 -0.05163,-0.02649 -0.09306,-0.06627 -0.135393,-0.104903 -0.06624,-0.06108 -0.111394,-0.139248 -0.153995,-0.217558 -0.05491,-0.09828 -0.08506,-0.205813 -0.10542,-0.315743 -0.01367,-0.08834 -0.02084,-0.177301 -0.0217,-0.266651 0.0013,-0.06098 0.006,-0.121891 0.01705,-0.181901 0.0074,-0.03471 0.01812,-0.06809 0.03152,-0.100252 8.2e-4,-0.0146 0.0026,-0.02883 0.0047,-0.04341 0.0067,-0.047 0.02238,-0.09185 0.03359,-0.137976 0.03013,-0.05208 0.05607,-0.1072 0.09043,-0.15658 0.02072,-0.02978 0.04836,-0.05382 0.0739,-0.07958 0.07248,-0.0731 0.160477,-0.130122 0.244946,-0.188102 0.06305,-0.0446 0.127944,-0.0862 0.191203,-0.130224 0.008,-0.0058 0.01614,-0.01144 0.02429,-0.01706 0.01565,-0.01116 0.03118,-0.02245 0.04651,-0.03411 0.129881,-0.102076 0.26968,-0.189539 0.415478,-0.26665 0.20807,-0.09921 0.423004,-0.183293 0.640271,-0.259933 0.212256,-0.07351 0.427757,-0.137019 0.642855,-0.201537 0.163425,-0.04262 0.321513,-0.102684 0.483692,-0.149346 0.190677,-0.05485 0.22588,-0.05932 0.42478,-0.103869 0.42794,-0.08531 0.856964,-0.166632 1.28726,-0.239262 0.161905,-0.01999 0.329689,-0.06128 0.49351,-0.03049 0.05484,0.0103 0.08599,0.01882 0.114721,0.02946 0.0026,-0.0012 0.0072,-0.0029 0.0093,-0.0031 0.03573,-0.0029 0.07167,-0.0015 0.107487,-0.0031 0.171159,-0.0076 0.341789,-0.02149 0.51263,-0.03411 0.270273,-0.02182 0.540335,-0.04974 0.808737,-0.08837 0.144328,-0.02897 0.288566,-0.05762 0.434598,-0.07648 0.13288,-0.01446 0.262892,-0.04428 0.393775,-0.07028 0.05137,-0.0113 0.103612,-0.02038 0.155546,-0.02997 0.01049,-0.0024 0.02103,-0.0043 0.03152,-0.0067 h 5.29e-4 l 5.29e-4,-5.29e-4 5.3e-4,-0.001 h 5.29e-4 5.29e-4 c 0.02034,-0.0056 0.04706,-0.02254 0.06976,-0.03256 z m 0.04289,5.29e-4 c 0.0018,0.0019 0.0033,0.0043 0.0047,0.0072 v 5.29e-4 5.29e-4 h 5.29e-4 5.29e-4 5.29e-4 l 5.3e-4,-5.29e-4 h 5.29e-4 c 9.52e-4,0.0047 0.0021,0.0093 0.0031,0.01395 0.0036,0.0089 0.0069,0.01793 0.01034,0.02687 0.111329,-0.01547 0.222487,-0.03241 0.333829,-0.04858 z m 1.077969,0 c 0.04901,0.20311 -1.038728,0.84883 -0.271817,0.892969 0.0045,2.32e-4 0.01579,-5.1e-5 0.0186,5.29e-4 l -5.29e-4,5.3e-4 c -0.02423,0.004 -0.04904,0.0045 -0.07338,0.0078 -0.203014,0.02718 -0.405831,0.05925 -0.608749,0.08733 -0.187915,0.02627 -0.375176,0.05588 -0.562239,0.08733 -0.147546,0.03364 -0.294639,0.06752 -0.441834,0.102836 -0.397632,0.100905 -0.796066,0.198912 -1.197343,0.28422 -0.313447,0.06725 -0.627414,0.132465 -0.942578,0.191203 -0.07558,0.01263 -0.15128,0.02515 -0.22686,0.03772 -0.111478,0.02793 -0.223997,0.05158 -0.33693,0.07338 -0.165294,0.03158 -0.329127,0.07037 -0.494543,0.101286 -0.150585,0.03276 -0.300676,0.06614 -0.452169,0.09457 -0.119559,0.02102 -0.238887,0.0423 -0.358118,0.06511 -0.09902,0.02542 -0.196322,0.05792 -0.293522,0.0894 -0.02647,0.01107 -0.05218,0.02343 -0.07752,0.03669 0.02637,0.0036 0.05269,0.0074 0.07906,0.01085 0.104585,0.01433 0.209321,0.02676 0.314193,0.03876 0.06949,0.0083 0.139179,0.01605 0.208256,0.02739 h 5.29e-4 c 0.02357,5.03e-4 0.04683,0.0017 0.07028,0.0041 0.01484,0.0013 0.0297,0.0042 0.04444,0.0062 0.01401,0.0016 0.02772,0.0053 0.04134,0.0088 0.01459,0.004 0.02911,0.0078 0.04392,0.01085 0.0336,0.0076 0.06767,0.01204 0.101803,0.01654 0.0374,0.0044 0.07512,0.0078 0.112654,0.01085 0.03377,0.0038 0.06749,0.0079 0.101287,0.01137 0.0445,0.0025 0.0882,0.0096 0.131774,0.0186 0.06453,0.01461 0.12754,0.0365 0.189652,0.05943 0.01384,0.0011 0.02747,0.0024 0.04134,0.0036 0.04491,0.0026 0.08942,0.0092 0.133843,0.01602 0.0096,0.0017 0.01934,0.003 0.02894,0.0047 0.03579,0.0065 0.03656,0.0078 0.07286,0.01447 0.04364,0.0081 0.08738,0.01459 0.131258,0.02119 0.01535,0.0022 0.03065,0.0044 0.04599,0.0067 0.01772,0.0027 0.0883,0.01354 0.10542,0.01654 0.02007,0.0035 0.04001,0.0074 0.05994,0.01137 0.06507,0.0086 0.130092,0.01983 0.194821,0.03049 0.06992,0.01232 0.140158,0.02188 0.209289,0.03824 0.0648,0.01798 0.130712,0.0316 0.196372,0.04599 0.100477,0.02222 0.201226,0.04277 0.302306,0.06201 0.0937,0.01872 0.187352,0.03751 0.280603,0.0584 0.0847,0.02013 0.169108,0.04118 0.254248,0.05943 0.0813,0.01698 0.162594,0.03377 0.243913,0.05064 0.04705,0.0096 0.09453,0.01789 0.141593,0.02739 0.03291,0.0077 0.0646,0.01824 0.09819,0.02274 0.03972,0.0066 0.0797,0.01067 0.119372,0.01757 0.03915,0.0069 0.07817,0.01584 0.117306,0.02274 0.03273,0.0052 0.06514,0.01155 0.09715,0.02015 0.02478,0.006 0.05,0.01165 0.07493,0.01705 0.07783,0.01869 0.154748,0.04018 0.232028,0.06098 0.05772,0.01401 0.115956,0.02511 0.174666,0.03411 0.05149,0.0058 0.102993,0.01084 0.154513,0.01654 0.04606,0.0054 0.09263,0.01015 0.138492,0.01705 0.02073,0.0036 0.04106,0.0076 0.06201,0.0098 0.03517,0.0039 0.07048,0.0089 0.10542,0.01447 0.05568,0.01004 0.111663,0.0198 0.167432,0.02946 0.03695,1.65e-4 0.07369,0.0024 0.110588,0.0041 0.03461,0.0015 0.06889,0.0025 0.103352,0.0062 0.02567,0.0034 0.05068,0.01082 0.07597,0.01602 0.02606,0.0046 0.05223,0.0068 0.07855,0.0093 0.03641,0.0029 0.07274,0.0077 0.10852,0.01499 0.02004,0.004 0.04026,0.0073 0.06046,0.01033 0.02982,0.0034 0.05967,0.0062 0.0894,0.01033 0.07026,0.01152 0.139503,0.02866 0.208773,0.04496 0.09058,0.01874 0.181371,0.03725 0.271301,0.05891 0.09174,0.02369 0.18319,0.04708 0.274919,0.0708 0.0875,0.0241 0.172931,0.05497 0.255281,0.09302 0.02884,0.01393 0.05604,0.03026 0.08217,0.04857 0.0179,0.005 0.03589,0.01034 0.05374,0.0155 0.05962,0.01723 0.198709,0.05875 0.254249,0.08578 0.05996,0.02917 0.115774,0.0666 0.173632,0.09974 0.05972,0.08762 0.145407,0.16205 0.179317,0.262516 0.0697,0.206475 -0.02248,0.399074 -0.135392,0.559656 -0.01755,0.02117 -0.03354,0.04335 -0.05219,0.06356 -0.07044,0.07634 -0.155148,0.136502 -0.238228,0.19792 -0.09252,0.06341 -0.185357,0.126295 -0.283186,0.181385 -0.128038,0.06657 -0.260892,0.121782 -0.398943,0.164331 -0.216938,0.06799 -0.435651,0.130947 -0.658875,0.175183 -0.285188,0.05421 -0.572029,0.09863 -0.860412,0.131258 -0.03281,0.0057 -0.06547,0.01155 -0.09819,0.01757 -0.04624,0.0091 -0.09238,0.01812 -0.138493,0.02791 -0.03415,0.0077 -0.06788,0.01696 -0.10232,0.02325 -0.02339,0.0038 -0.04688,0.0072 -0.07028,0.01085 -0.02444,0.0039 -0.04876,0.0069 -0.07338,0.0093 -0.02787,0.0033 -0.05589,0.0052 -0.08372,0.0088 -0.0283,0.0034 -0.0568,0.0066 -0.08475,0.0124 -0.02492,0.0045 -0.05008,0.0086 -0.07493,0.01343 -0.02249,0.0048 -0.04492,0.0101 -0.06718,0.0155 -0.01836,0.0059 -0.03647,0.01189 -0.05478,0.01809 -0.04835,0.01725 -0.09724,0.03302 -0.146761,0.04651 -0.05116,0.01222 -0.102635,0.0243 -0.153995,0.03566 -0.0018,4.24e-4 -0.0044,0.0011 -0.0062,0.0016 h -5.3e-4 -5.29e-4 c -0.03214,0.0092 -0.06421,0.01834 -0.09612,0.02791 -0.122251,0.03893 -0.242594,0.08373 -0.364836,0.12299 -0.03109,0.0102 -0.06215,0.01993 -0.09353,0.02894 0.02612,0.0035 0.05229,0.0067 0.07855,0.0093 0.109737,0.0089 0.219703,0.0136 0.328662,0.03049 0.07878,0.0097 0.158492,0.0083 0.237712,0.0083 0.09075,1.39e-4 0.181068,-2.65e-4 0.271818,5.29e-4 0.100499,8.99e-4 0.201358,0.0022 0.30179,0.0062 0.14825,0.0061 0.296635,0.01421 0.443901,0.03307 0.186158,0.02521 0.37126,0.05855 0.55087,0.114722 0.151598,0.05266 0.304945,0.108784 0.439767,0.197404 0.145422,0.109532 0.238549,0.212307 0.284737,0.394809 0.0049,0.03668 0.01257,0.07313 0.01447,0.110069 0.0058,0.113765 -0.02583,0.224727 -0.0646,0.330214 -0.03948,0.09525 -0.08646,0.187388 -0.143661,0.273367 -0.04626,0.06638 -0.09492,0.130813 -0.148828,0.191204 -0.06679,0.07212 -0.137273,0.140511 -0.214974,0.201021 -0.0879,0.06316 -0.180808,0.118447 -0.281636,0.158647 -0.07742,0.03454 -0.155535,0.06773 -0.235645,0.0956 -0.07012,0.02407 -0.141297,0.04255 -0.212907,0.0615 -0.117049,0.03522 -0.235339,0.06632 -0.353467,0.09767 -0.13091,0.03891 -0.262573,0.07626 -0.38809,0.13074 -0.175199,0.07885 -0.353468,0.152585 -0.521932,0.245463 -0.200289,0.108821 -0.395284,0.226558 -0.596346,0.333831 -0.04481,0.0222 -0.08961,0.04389 -0.134875,0.06511 H 30.04933 V 12.1698 Z m 0.619601,3.937744 c -0.0036,0.0021 -0.01201,0.01025 -0.01602,0.01292 -0.0065,0.0048 -0.0121,0.01109 -0.01654,0.01809 0.01641,-0.01142 0.03013,-0.02161 0.03307,-0.02791 l 5.3e-4,-5.29e-4 v -5.29e-4 -5.3e-4 -5.29e-4 -5.29e-4 -5.29e-4 h -5.3e-4 z m -0.669726,0.328145 c -0.0024,0.0067 -0.0051,0.01321 -0.0078,0.01964 0.0139,-0.0041 0.02798,-0.0082 0.04186,-0.0124 -0.01123,-0.0025 -0.02286,-0.0048 -0.03411,-0.0072 z m -2.853568,2.996693 v 5.29e-4 5.29e-4 5.29e-4 c 3.4e-5,2.26e-4 4.23e-4,0.0013 5.29e-4,0.0016 2.04e-4,6.35e-4 3.97e-4,0.0015 5.29e-4,0.0021 -4e-6,-0.0016 3.3e-5,-0.0031 0,-0.0047 h -5.29e-4 v -5.29e-4 z" />
    </clipPath>
  </defs>
  <g
     inkscape:label="Capa 1"
     inkscape:groupmode="layer"
     id="layer1">
    <text
       xml:space="preserve"
       style="font-style:normal;font-variant:normal;font-weight:normal;font-stretch:condensed;font-size:21.239px;font-family:'Agency FB';-inkscape-font-specification:'Agency FB Condensed';text-align:start;writing-mode:lr-tb;direction:ltr;text-anchor:start;fill:#ffffff;stroke-width:1.7699"
       x="25.514067"
       y="18.113041"
       id="text153"
       transform="scale(1.0050127,0.99501231)"><tspan
         sodipodi:role="line"
         id="tspan153"
         style="font-style:normal;font-variant:normal;font-weight:normal;font-stretch:normal;font-family:Century;-inkscape-font-specification:Century;fill:#ffffff;stroke-width:1.7699"
         x="25.514067"
         y="18.113041">Coopnet</tspan></text>
    <circle
       style="fill:#000080;stroke-width:0.264583"
       id="path152"
       cx="12.043103"
       cy="11.474138"
       r="11.37931" />
    <path
       id="rect25"
       style="display:inline;fill:#aaaaff;stroke-width:0.136451"
       d="m 5.3630239,12.896282 v 7.970515 h 3.7503147 v 2.075467 h 7.0931524 v -2.075467 h 3.148769 v -7.970515 z"
       sodipodi:nodetypes="ccccccccc" />
    <path
       id="path8"
       style="display:inline;fill:#0000d4;stroke-width:0.34642"
       d="m 21.182686,12.1698 c -4.896169,3.2e-5 -8.865421,0.891419 -8.866125,1.991093 -6.3e-5,0.10872 0.03952,0.217259 0.118339,0.324528 v 1.71359 h 0.687813 v 1.019576 h 0.379305 v 0.876949 h 1.042831 v 0.521415 h 0.542085 v 0.660942 h 0.761711 v 0.524516 h 0.664042 v 0.687296 h 1.351339 v 0.640271 h 6.400643 v -0.640271 h 1.232999 v -0.545186 h 1.280026 v -0.782381 h 0.521415 v -0.545187 h 1.161686 V 17.69246 h 0.592729 v -1.256254 h 0.806152 v -1.043347 h 0.09457 v -0.941545 c 0.06321,-0.09616 0.09499,-0.193223 0.09509,-0.290421 -7.04e-4,-1.09972 -3.970272,-1.991126 -8.866643,-1.991093 z"
       clip-path="url(#clipPath149)"
       sodipodi:nodetypes="sccccccccccccccccccccccccccccccccccss"
       transform="matrix(1.2075385,0,0,1.2075385,-13.450963,-2.702165)" />
    <path
       id="path7"
       style="display:inline;fill:#000055;stroke-width:0.246888"
       d="m 21.148063,2.2460836 a 9.8233092,9.8233092 0 0 0 -9.823464,9.8234644 9.8233092,9.8233092 0 0 0 9.823464,9.823463 9.8233092,9.8233092 0 0 0 9.823464,-9.823463 9.8233092,9.8233092 0 0 0 -9.823464,-9.8234644 z m 0,0.9075083 a 8.9160609,8.9160609 0 0 1 8.915955,8.9159561 8.9160609,8.9160609 0 0 1 -8.915955,8.915955 8.9160609,8.9160609 0 0 1 -8.915955,-8.915955 8.9160609,8.9160609 0 0 1 8.915955,-8.9159561 z"
       clip-path="url(#clipPath53)"
       transform="matrix(1.2075385,0,0,1.2075385,-13.450963,-2.702165)" />
    <path
       id="rect1"
       style="fill:#2a2aff;stroke-width:0.1093"
       d="M 12.204913,0.94634903 C 9.2903086,2.8316345 7.0223978,5.0534154 5.1368869,7.4741695 h 2.0198039 v 6.0733085 c 3.3169032,0.17874 6.6623892,0.100928 10.0104502,0 V 7.4741695 h 2.019805 C 17.328,5.0813003 15.104577,2.8149829 12.204913,0.94634903 Z"
       sodipodi:nodetypes="cccccccc" />
    <rect
       style="display:inline;fill:#aaaaff;stroke-width:0.0704395"
       id="rect3"
       width="5.7539992"
       height="5.1651611"
       x="9.2848291"
       y="7.7432179" />
    <path
       id="path151"
       clip-path="url(#clipPath53)"
       style="display:inline;fill:#000055;stroke-width:0.246888"
       d="m 21.148063,21.893237 a 9.8233092,9.8233092 0 0 1 -9.82369,-9.82369 9.8233092,9.8233092 0 0 1 9.82369,-9.8236893 9.8233092,9.8233092 0 0 1 9.82369,9.8236893 9.8233092,9.8233092 0 0 1 -9.82369,9.82369 z m 0,-0.907955 a 8.9160609,8.9160609 0 0 0 8.915735,-8.915735 8.9160609,8.9160609 0 0 0 -8.915735,-8.9157344 8.9160609,8.9160609 0 0 0 -8.915735,8.9157344 8.9160609,8.9160609 0 0 0 8.915735,8.915735 z"
       transform="matrix(1.2075385,0,0,-1.2075385,-13.450963,26.446719)" />
  </g>
</svg>
