<?xml version="1.0" encoding="UTF-8" standalone="no"?>
<!-- Created with Inkscape (http://www.inkscape.org/) -->

<svg
   width="106.09783mm"
   height="24.08342mm"
   viewBox="0 0 106.09783 24.08342"
   version="1.1"
   id="svg1"
   xml:space="preserve"
   sodipodi:docname="logo.svg"
   xmlns:inkscape="http://www.inkscape.org/namespaces/inkscape"
   xmlns:sodipodi="http://sodipodi.sourceforge.net/DTD/sodipodi-0.dtd"
   xmlns="http://www.w3.org/2000/svg"
   xmlns:svg="http://www.w3.org/2000/svg"><sodipodi:namedview
     id="namedview1"
     pagecolor="#ffffff"
     bordercolor="#000000"
     borderopacity="0.25"
     inkscape:showpageshadow="2"
     inkscape:pageopacity="0.0"
     inkscape:pagecheckerboard="0"
     inkscape:deskcolor="#d1d1d1"
     inkscape:document-units="mm"
     showgrid="false" /><defs
     id="defs1" /><g
     inkscape:label="Capa 1"
     inkscape:groupmode="layer"
     id="layer1"
     transform="translate(-88.000388,-150.61998)"><path
       style="fill:#ffffff"
       d="m 88.000388,162.65859 v -12.03854 h 8.46667 8.466662 v 1.32291 1.32292 h -7.154872 -7.15489 l 0.0773,2.05052 0.0773,2.05052 5.62239,0.0714 5.622402,0.0714 v 1.31766 1.31765 h -5.699242 -5.69924 l 0.0768,2.18281 0.0769,2.18281 5.62239,0.0714 5.622402,0.0714 v 1.31765 1.31766 h -5.698842 -5.69884 l 0.0765,2.3151 0.0764,2.31511 7.0776,0.0705 7.077602,0.0705 v 1.3186 1.31859 h -8.466662 -8.46667 z m 19.211822,11.62322 -0.16182,-0.42171 0.001,-0.83825 0.001,-0.83826 7.66917,-9.39271 7.66917,-9.39271 -7.40565,-0.0703 -7.40565,-0.0703 v -1.3188 -1.31879 h 9.26041 9.26042 v 1.33745 1.33744 l -7.40712,9.17974 -7.40713,9.17974 -0.001,0.1945 -0.001,0.1945 7.87136,0.0701 7.87135,0.0701 v 1.19063 1.19062 l -9.8262,0.0693 -9.82619,0.0693 z m 26.90036,-3.84711 -1.38053,-0.53068 -1.14556,-1.11336 -1.14556,-1.11336 -0.64891,-1.31873 -0.64891,-1.31873 v -2.38125 -2.38125 l 0.59968,-1.21705 0.59969,-1.21704 0.98781,-0.99213 0.98782,-0.99212 1.32291,-0.69754 1.32292,-0.69753 2.24896,-5.4e-4 2.24896,-5.4e-4 1.19062,0.62297 1.19063,0.62296 0.46302,0.40706 0.46302,0.40705 -0.001,0.28973 -10e-4,0.28972 -0.61317,0.76629 -0.61316,0.76628 -1.19288,-0.69907 -1.19288,-0.69907 -1.17194,-0.16064 -1.17194,-0.16063 -1.12522,0.30299 -1.12521,0.30299 -0.93816,0.82371 -0.93815,0.82371 -0.53248,1.04374 -0.53248,1.04375 v 1.4022 1.4022 l 0.52384,1.01869 0.52383,1.01869 0.75184,0.71357 0.75183,0.71357 0.98369,0.41091 0.98369,0.41091 h 1.17226 1.17225 l 1.50894,-0.79375 1.50895,-0.79375 h 0.21613 0.21614 l 0.59742,0.96665 0.59742,0.96665 -0.77428,0.62281 -0.77428,0.62281 -1.39898,0.52721 -1.39899,0.52721 -1.64372,-0.0138 -1.64372,-0.0138 z m 15.875,0.0158 -1.38054,-0.54646 -1.1785,-1.14538 -1.1785,-1.14537 -0.59365,-1.15442 -0.59366,-1.15443 -0.12056,-2.01788 -0.12057,-2.01788 0.44763,-1.34768 0.44763,-1.34769 1.20966,-1.34542 1.20965,-1.34543 1.35139,-0.70926 1.35138,-0.70925 2.24896,-0.004 2.24896,-0.004 1.51454,0.74373 1.51454,0.74373 0.91788,1.07233 0.91788,1.07234 0.59511,1.22664 0.59512,1.22664 0.0139,2.11667 0.014,2.11667 -0.73426,1.49768 -0.73426,1.49769 -1.03854,0.93825 -1.03853,0.93825 -1.1364,0.58631 -1.1364,0.58631 -2.11667,0.0886 -2.11666,0.0886 z m 5.778,-2.84265 1.41519,-0.73931 0.74069,-1.19804 0.74069,-1.19804 0.15551,-0.95828 0.15551,-0.95829 -0.16936,-0.9028 -0.16937,-0.90279 -0.77721,-1.17337 -0.7772,-1.17337 -1.0421,-0.58569 -1.0421,-0.58569 -1.15514,-0.15833 -1.15514,-0.15833 -1.12522,0.30299 -1.12521,0.30299 -0.93816,0.82371 -0.93815,0.82371 -0.54787,1.07392 -0.54788,1.07391 0.0123,1.36592 0.0123,1.36591 0.52696,1.02481 0.52695,1.0248 0.75184,0.71301 0.75183,0.71301 0.92604,0.40112 0.92604,0.40111 1.22656,0.0104 1.22656,0.0104 z m -3.88033,-3.6143 -0.64943,-0.64943 v -0.55859 -0.55858 l 0.28067,-0.52444 0.28067,-0.52444 0.69402,-0.26387 0.69402,-0.26386 0.71078,0.29441 0.71078,0.29441 0.2989,0.65603 0.29891,0.65603 v 0.39645 0.39645 l -0.64944,0.64943 -0.64943,0.64944 h -0.68551 -0.68551 z m 13.7672,6.42515 -0.13746,-0.3582 0.0703,-7.66969 0.0703,-7.6697 3.47583,-0.0736 3.47584,-0.0736 1.43995,0.53875 1.43995,0.53876 1.08736,0.93074 1.08736,0.93073 0.7425,1.51455 0.74251,1.51454 -0.014,2.11666 -0.0139,2.11667 -0.582,1.19875 -0.58201,1.19874 -0.76396,0.92682 -0.76395,0.92681 -1.41699,0.78486 -1.41699,0.78485 -3.90161,0.0904 -3.9016,0.0904 z m 7.12643,-2.85405 1.03785,-0.2407 0.68194,-0.49608 0.68194,-0.49607 0.59531,-1.16505 0.59531,-1.16506 -0.006,-1.333 -0.006,-1.333 -0.48599,-1.05833 -0.48599,-1.05834 -0.51007,-0.45293 -0.51007,-0.45293 -0.97401,-0.40696 -0.974,-0.40697 h -1.99288 -1.99287 v 5.15938 5.15938 l 1.65365,-0.006 1.65364,-0.006 z m 9.53301,2.8298 -0.12815,-0.33395 0.0703,-7.66969 0.0703,-7.6697 h 5.55625 5.55624 v 1.32291 1.32292 l -4.16718,0.0729 -4.16719,0.0729 v 1.84536 1.84537 h 4.11487 4.11487 l -0.08,1.38906 -0.08,1.38907 -4.03489,0.073 -4.0349,0.073 v 1.84519 1.8452 h 4.33732 4.33731 l 0.1606,0.41851 0.1606,0.41851 v 0.7192 0.71919 l -0.3175,0.3175 -0.3175,0.3175 h -5.51163 -5.51164 z m -46.25393,-6.29983 -0.69714,-0.54837 v -0.88764 -0.88763 l 0.69714,-0.54838 0.69714,-0.54837 h 0.4578 0.4578 l 0.69714,0.54837 0.69714,0.54838 v 0.88763 0.88764 l -0.69714,0.54837 -0.69714,0.54837 h -0.4578 -0.4578 z"
       id="path1"
       inkscape:export-filename="logo-white.svg"
       inkscape:export-xdpi="96"
       inkscape:export-ydpi="96" /></g></svg>
